<mxfile host="app.diagrams.net" modified="2024-03-04T05:12:46.064Z" agent="Mozilla/5.0 (Windows NT 10.0; Win64; x64) AppleWebKit/537.36 (KHTML, like Gecko) Chrome/122.0.0.0 Safari/537.36" etag="-KVEmXXyOpBZQDACoX8_" version="24.0.1" type="google">
  <diagram name="Page-1" id="k2pKDuZ9q34RrPKNR_q6">
    <mxGraphModel dx="1354" dy="592" grid="1" gridSize="10" guides="1" tooltips="1" connect="1" arrows="1" fold="1" page="1" pageScale="1" pageWidth="850" pageHeight="1100" math="0" shadow="0">
      <root>
        <mxCell id="0" />
        <mxCell id="1" parent="0" />
        <mxCell id="eZ7KFomPYEteNGIFkrch-1" value="" style="edgeStyle=orthogonalEdgeStyle;rounded=0;orthogonalLoop=1;jettySize=auto;html=1;shape=link;fillColor=#008a00;strokeColor=#005700;" edge="1" parent="1" source="czh8SZCqhI5ECNnZUEF7-1" target="czh8SZCqhI5ECNnZUEF7-2">
          <mxGeometry relative="1" as="geometry">
            <Array as="points">
              <mxPoint x="423" y="550" />
              <mxPoint x="430" y="550" />
            </Array>
          </mxGeometry>
        </mxCell>
        <mxCell id="eZ7KFomPYEteNGIFkrch-2" value="1. Send Events&lt;div&gt;&lt;br&gt;&lt;/div&gt;" style="edgeLabel;html=1;align=center;verticalAlign=middle;resizable=0;points=[];" vertex="1" connectable="0" parent="eZ7KFomPYEteNGIFkrch-1">
          <mxGeometry x="0.0326" y="-1" relative="1" as="geometry">
            <mxPoint x="-8" y="19" as="offset" />
          </mxGeometry>
        </mxCell>
        <mxCell id="czh8SZCqhI5ECNnZUEF7-1" value="" style="fontColor=#0066CC;verticalAlign=top;verticalLabelPosition=bottom;labelPosition=center;align=center;html=1;outlineConnect=0;fillColor=#CCCCCC;strokeColor=#6881B3;gradientColor=none;gradientDirection=north;strokeWidth=2;shape=mxgraph.networks.pc;" parent="1" vertex="1">
          <mxGeometry x="372.5" y="600" width="100" height="70" as="geometry" />
        </mxCell>
        <mxCell id="eZ7KFomPYEteNGIFkrch-4" style="edgeStyle=orthogonalEdgeStyle;rounded=0;orthogonalLoop=1;jettySize=auto;html=1;shape=link;fillColor=#60a917;strokeColor=#2D7600;" edge="1" parent="1" source="czh8SZCqhI5ECNnZUEF7-2" target="czh8SZCqhI5ECNnZUEF7-5">
          <mxGeometry relative="1" as="geometry" />
        </mxCell>
        <mxCell id="czh8SZCqhI5ECNnZUEF7-2" value="Router&lt;div&gt;&lt;br&gt;&lt;/div&gt;" style="image;html=1;image=img/lib/clip_art/networking/Router_Icon_128x128.png" parent="1" vertex="1">
          <mxGeometry x="410" y="380" width="65" height="100" as="geometry" />
        </mxCell>
        <mxCell id="eZ7KFomPYEteNGIFkrch-10" value="2. Receive Events" style="rounded=0;orthogonalLoop=1;jettySize=auto;html=1;shape=link;fillColor=#008a00;strokeColor=#005700;" edge="1" parent="1" source="czh8SZCqhI5ECNnZUEF7-5" target="czh8SZCqhI5ECNnZUEF7-17">
          <mxGeometry relative="1" as="geometry" />
        </mxCell>
        <mxCell id="czh8SZCqhI5ECNnZUEF7-5" value="Internet&lt;div&gt;&lt;br&gt;&lt;/div&gt;" style="outlineConnect=0;dashed=0;verticalLabelPosition=bottom;verticalAlign=top;align=center;html=1;shape=mxgraph.aws3.internet_gateway;fillColor=#F58534;gradientColor=none;" parent="1" vertex="1">
          <mxGeometry x="420" y="250" width="89" height="72" as="geometry" />
        </mxCell>
        <mxCell id="czh8SZCqhI5ECNnZUEF7-3" value="Windows 10 Client&amp;nbsp;&lt;div&gt;Wazuh Agent&lt;/div&gt;&lt;div&gt;&lt;br&gt;&lt;/div&gt;" style="rounded=1;whiteSpace=wrap;html=1;verticalAlign=top;fillColor=#CCCCCC;strokeColor=#6881B3;fontColor=#0066CC;gradientColor=none;gradientDirection=north;strokeWidth=2;" parent="1" vertex="1">
          <mxGeometry x="362.5" y="680" width="120" height="40" as="geometry" />
        </mxCell>
        <mxCell id="eZ7KFomPYEteNGIFkrch-7" value="3. Send Alerts" style="rounded=0;orthogonalLoop=1;jettySize=auto;html=1;shape=link;fillColor=#1ba1e2;strokeColor=#006EAF;" edge="1" parent="1" source="czh8SZCqhI5ECNnZUEF7-17" target="czh8SZCqhI5ECNnZUEF7-19">
          <mxGeometry relative="1" as="geometry">
            <mxPoint x="140" y="180" as="targetPoint" />
          </mxGeometry>
        </mxCell>
        <mxCell id="eZ7KFomPYEteNGIFkrch-26" value="8. Send Response action" style="rounded=0;orthogonalLoop=1;jettySize=auto;html=1;shape=link;fillColor=#76608a;strokeColor=#432D57;" edge="1" parent="1" target="czh8SZCqhI5ECNnZUEF7-19">
          <mxGeometry relative="1" as="geometry">
            <mxPoint x="69.5" y="261" as="sourcePoint" />
            <mxPoint x="430" y="100" as="targetPoint" />
            <Array as="points">
              <mxPoint x="170" y="120" />
            </Array>
          </mxGeometry>
        </mxCell>
        <mxCell id="eZ7KFomPYEteNGIFkrch-28" value="9. Perform Responsive Action" style="rounded=0;orthogonalLoop=1;jettySize=auto;html=1;shape=link;fillColor=#76608a;strokeColor=#432D57;" edge="1" parent="1" source="czh8SZCqhI5ECNnZUEF7-17">
          <mxGeometry relative="1" as="geometry">
            <mxPoint x="360" y="640" as="targetPoint" />
          </mxGeometry>
        </mxCell>
        <mxCell id="czh8SZCqhI5ECNnZUEF7-17" value="Wazuh Manager" style="outlineConnect=0;dashed=0;verticalLabelPosition=bottom;verticalAlign=top;align=center;html=1;shape=mxgraph.aws3.internet_gateway;fillColor=#F58534;gradientColor=none;strokeColor=default;" parent="1" vertex="1">
          <mxGeometry x="30" y="250" width="80" height="82" as="geometry" />
        </mxCell>
        <mxCell id="czh8SZCqhI5ECNnZUEF7-18" value="The Hive&lt;div&gt;&lt;br&gt;&lt;/div&gt;" style="outlineConnect=0;dashed=0;verticalLabelPosition=bottom;verticalAlign=top;align=center;html=1;shape=mxgraph.aws3.internet_gateway;fillColor=#F58534;gradientColor=none;" parent="1" vertex="1">
          <mxGeometry x="750" y="210" width="69" height="72" as="geometry" />
        </mxCell>
        <mxCell id="eZ7KFomPYEteNGIFkrch-8" value="4. Enrich IOC&#39;s" style="edgeStyle=orthogonalEdgeStyle;rounded=0;orthogonalLoop=1;jettySize=auto;html=1;shape=link;" edge="1" parent="1" source="czh8SZCqhI5ECNnZUEF7-19" target="czh8SZCqhI5ECNnZUEF7-5">
          <mxGeometry x="-0.276" y="-5" relative="1" as="geometry">
            <Array as="points">
              <mxPoint x="475" y="210" />
              <mxPoint x="465" y="210" />
            </Array>
            <mxPoint as="offset" />
          </mxGeometry>
        </mxCell>
        <mxCell id="eZ7KFomPYEteNGIFkrch-12" value="5. Send Alerts" style="rounded=0;orthogonalLoop=1;jettySize=auto;html=1;entryX=0.5;entryY=0;entryDx=0;entryDy=0;entryPerimeter=0;shape=link;fillColor=#1ba1e2;strokeColor=#006EAF;" edge="1" parent="1">
          <mxGeometry relative="1" as="geometry">
            <mxPoint x="504.5" y="110" as="sourcePoint" />
            <mxPoint x="750" y="244" as="targetPoint" />
          </mxGeometry>
        </mxCell>
        <mxCell id="eZ7KFomPYEteNGIFkrch-14" value="" style="rounded=0;orthogonalLoop=1;jettySize=auto;html=1;strokeColor=none;shape=link;edgeStyle=orthogonalEdgeStyle;" edge="1" parent="1">
          <mxGeometry relative="1" as="geometry">
            <mxPoint x="625" y="326" as="sourcePoint" />
            <mxPoint x="630" y="300" as="targetPoint" />
          </mxGeometry>
        </mxCell>
        <mxCell id="eZ7KFomPYEteNGIFkrch-16" value="6. Send Email" style="rounded=0;orthogonalLoop=1;jettySize=auto;html=1;shape=link;fillColor=#fa6800;strokeColor=#C73500;" edge="1" parent="1" source="czh8SZCqhI5ECNnZUEF7-19">
          <mxGeometry relative="1" as="geometry">
            <mxPoint x="640" y="290" as="targetPoint" />
          </mxGeometry>
        </mxCell>
        <mxCell id="eZ7KFomPYEteNGIFkrch-24" value="" style="rounded=0;orthogonalLoop=1;jettySize=auto;html=1;shape=link;edgeStyle=orthogonalEdgeStyle;fillColor=#76608a;strokeColor=#432D57;" edge="1" parent="1">
          <mxGeometry relative="1" as="geometry">
            <mxPoint x="460" y="125" as="sourcePoint" />
            <mxPoint x="420" y="260" as="targetPoint" />
          </mxGeometry>
        </mxCell>
        <mxCell id="czh8SZCqhI5ECNnZUEF7-19" value="Shuffle&lt;br&gt;&lt;div&gt;&lt;br&gt;&lt;/div&gt;" style="outlineConnect=0;verticalLabelPosition=bottom;verticalAlign=top;align=center;html=1;shape=mxgraph.aws3.internet_gateway;fillColor=#F58534;gradientColor=none;" parent="1" vertex="1">
          <mxGeometry x="440" y="80" width="60" height="90" as="geometry" />
        </mxCell>
        <mxCell id="eZ7KFomPYEteNGIFkrch-20" value="7. Send &amp;amp; Receive Email" style="rounded=0;orthogonalLoop=1;jettySize=auto;html=1;entryX=0.855;entryY=0.855;entryDx=0;entryDy=0;entryPerimeter=0;shape=link;fillColor=#fa6800;strokeColor=#C73500;" edge="1" parent="1" source="czh8SZCqhI5ECNnZUEF7-22" target="czh8SZCqhI5ECNnZUEF7-5">
          <mxGeometry relative="1" as="geometry">
            <mxPoint x="639" y="495" as="targetPoint" />
          </mxGeometry>
        </mxCell>
        <mxCell id="eZ7KFomPYEteNGIFkrch-22" value="8. Send Response Action" style="edgeStyle=orthogonalEdgeStyle;rounded=0;orthogonalLoop=1;jettySize=auto;html=1;shape=link;fillColor=#76608a;strokeColor=#432D57;" edge="1" parent="1" source="czh8SZCqhI5ECNnZUEF7-22" target="czh8SZCqhI5ECNnZUEF7-5">
          <mxGeometry x="-0.3349" relative="1" as="geometry">
            <mxPoint x="490" y="330" as="targetPoint" />
            <Array as="points">
              <mxPoint x="491" y="520" />
            </Array>
            <mxPoint as="offset" />
          </mxGeometry>
        </mxCell>
        <mxCell id="czh8SZCqhI5ECNnZUEF7-22" value="SOC Analyst&lt;div&gt;&lt;br&gt;&lt;/div&gt;" style="fontColor=#0066CC;verticalAlign=top;verticalLabelPosition=bottom;labelPosition=center;align=center;html=1;outlineConnect=0;fillColor=#CCCCCC;strokeColor=#6881B3;gradientColor=none;gradientDirection=north;strokeWidth=2;shape=mxgraph.networks.pc;" parent="1" vertex="1">
          <mxGeometry x="719" y="460" width="100" height="70" as="geometry" />
        </mxCell>
        <mxCell id="eZ7KFomPYEteNGIFkrch-17" value="" style="rounded=0;orthogonalLoop=1;jettySize=auto;html=1;strokeColor=none;shape=link;edgeStyle=orthogonalEdgeStyle;" edge="1" parent="1" source="czh8SZCqhI5ECNnZUEF7-19">
          <mxGeometry relative="1" as="geometry">
            <mxPoint x="510" y="115" as="sourcePoint" />
            <mxPoint x="625" y="256" as="targetPoint" />
          </mxGeometry>
        </mxCell>
        <mxCell id="eZ7KFomPYEteNGIFkrch-18" value="" style="edgeStyle=orthogonalEdgeStyle;rounded=0;orthogonalLoop=1;jettySize=auto;html=1;shape=link;fillColor=#fa6800;strokeColor=#C73500;" edge="1" parent="1" target="czh8SZCqhI5ECNnZUEF7-5">
          <mxGeometry relative="1" as="geometry">
            <mxPoint x="630" y="280" as="sourcePoint" />
            <Array as="points">
              <mxPoint x="640" y="280" />
              <mxPoint x="640" y="290" />
              <mxPoint x="560" y="290" />
              <mxPoint x="560" y="286" />
            </Array>
          </mxGeometry>
        </mxCell>
        <mxCell id="eZ7KFomPYEteNGIFkrch-23" value="" style="shape=waypoint;sketch=0;size=6;pointerEvents=1;points=[];fillColor=#F58534;resizable=0;rotatable=0;perimeter=centerPerimeter;snapToPoint=1;verticalAlign=top;gradientColor=none;" vertex="1" parent="1">
          <mxGeometry x="315" y="105" width="20" height="20" as="geometry" />
        </mxCell>
        <mxCell id="eZ7KFomPYEteNGIFkrch-32" value="" style="edgeStyle=orthogonalEdgeStyle;rounded=0;orthogonalLoop=1;jettySize=auto;html=1;" edge="1" parent="1" source="eZ7KFomPYEteNGIFkrch-30">
          <mxGeometry relative="1" as="geometry">
            <mxPoint x="170" y="880" as="targetPoint" />
          </mxGeometry>
        </mxCell>
        <mxCell id="eZ7KFomPYEteNGIFkrch-30" value="Windows 10&amp;nbsp;&lt;div&gt;Send Events&lt;/div&gt;" style="text;html=1;align=center;verticalAlign=middle;resizable=0;points=[];autosize=1;strokeColor=none;fillColor=none;" vertex="1" parent="1">
          <mxGeometry y="860" width="90" height="40" as="geometry" />
        </mxCell>
        <mxCell id="eZ7KFomPYEteNGIFkrch-35" value="" style="edgeStyle=orthogonalEdgeStyle;rounded=0;orthogonalLoop=1;jettySize=auto;html=1;" edge="1" parent="1">
          <mxGeometry relative="1" as="geometry">
            <mxPoint x="390" y="880" as="sourcePoint" />
            <mxPoint x="400" y="880" as="targetPoint" />
          </mxGeometry>
        </mxCell>
        <mxCell id="eZ7KFomPYEteNGIFkrch-33" value="Wazuh Manager&lt;div&gt;Trigger Alerts &amp;amp; Perform Response Actions&lt;/div&gt;" style="text;html=1;align=center;verticalAlign=middle;resizable=0;points=[];autosize=1;strokeColor=none;fillColor=none;" vertex="1" parent="1">
          <mxGeometry x="110" y="860" width="250" height="40" as="geometry" />
        </mxCell>
        <mxCell id="eZ7KFomPYEteNGIFkrch-37" value="" style="edgeStyle=orthogonalEdgeStyle;rounded=0;orthogonalLoop=1;jettySize=auto;html=1;" edge="1" parent="1" target="eZ7KFomPYEteNGIFkrch-36">
          <mxGeometry relative="1" as="geometry">
            <mxPoint x="480" y="880" as="sourcePoint" />
          </mxGeometry>
        </mxCell>
        <mxCell id="eZ7KFomPYEteNGIFkrch-39" value="" style="edgeStyle=orthogonalEdgeStyle;rounded=0;orthogonalLoop=1;jettySize=auto;html=1;" edge="1" parent="1" source="eZ7KFomPYEteNGIFkrch-36" target="eZ7KFomPYEteNGIFkrch-38">
          <mxGeometry relative="1" as="geometry" />
        </mxCell>
        <mxCell id="eZ7KFomPYEteNGIFkrch-41" value="" style="edgeStyle=orthogonalEdgeStyle;rounded=0;orthogonalLoop=1;jettySize=auto;html=1;" edge="1" parent="1" source="eZ7KFomPYEteNGIFkrch-36" target="eZ7KFomPYEteNGIFkrch-40">
          <mxGeometry relative="1" as="geometry" />
        </mxCell>
        <mxCell id="eZ7KFomPYEteNGIFkrch-44" value="" style="edgeStyle=orthogonalEdgeStyle;rounded=0;orthogonalLoop=1;jettySize=auto;html=1;" edge="1" parent="1" source="eZ7KFomPYEteNGIFkrch-36" target="eZ7KFomPYEteNGIFkrch-43">
          <mxGeometry relative="1" as="geometry" />
        </mxCell>
        <mxCell id="eZ7KFomPYEteNGIFkrch-48" value="" style="edgeStyle=orthogonalEdgeStyle;rounded=0;orthogonalLoop=1;jettySize=auto;html=1;" edge="1" parent="1" source="eZ7KFomPYEteNGIFkrch-36">
          <mxGeometry relative="1" as="geometry">
            <mxPoint x="420" y="880" as="targetPoint" />
          </mxGeometry>
        </mxCell>
        <mxCell id="eZ7KFomPYEteNGIFkrch-36" value="Shuffle&lt;div&gt;Receive Wazuh Alerts &amp;amp; Send Responsive Actions&lt;/div&gt;" style="text;html=1;align=center;verticalAlign=middle;resizable=0;points=[];autosize=1;strokeColor=none;fillColor=none;" vertex="1" parent="1">
          <mxGeometry x="500" y="860" width="290" height="40" as="geometry" />
        </mxCell>
        <mxCell id="eZ7KFomPYEteNGIFkrch-38" value="OSINT&lt;div&gt;Enrich IOCs&lt;/div&gt;" style="text;html=1;align=center;verticalAlign=middle;resizable=0;points=[];autosize=1;strokeColor=none;fillColor=none;" vertex="1" parent="1">
          <mxGeometry x="600" y="760" width="90" height="40" as="geometry" />
        </mxCell>
        <mxCell id="eZ7KFomPYEteNGIFkrch-40" value="TheHive&lt;div&gt;Create Alert in Case Management&amp;nbsp;&lt;/div&gt;" style="text;html=1;align=center;verticalAlign=middle;resizable=0;points=[];autosize=1;strokeColor=none;fillColor=none;" vertex="1" parent="1">
          <mxGeometry x="540" y="1000" width="210" height="40" as="geometry" />
        </mxCell>
        <mxCell id="eZ7KFomPYEteNGIFkrch-43" value="Send Email &amp;amp; Responsive Actions&lt;div&gt;&lt;br&gt;&lt;/div&gt;" style="text;html=1;align=center;verticalAlign=middle;resizable=0;points=[];autosize=1;strokeColor=none;fillColor=none;" vertex="1" parent="1">
          <mxGeometry x="915" y="880" width="200" height="40" as="geometry" />
        </mxCell>
      </root>
    </mxGraphModel>
  </diagram>
</mxfile>
